# xmcd
#
# Track frame offsets:
#	150
#	23604
#	41458
#	57873
#	78972
#	93829
#	113954
#	136007
#	149784
#	166460
#	182725
#	198346
#	221661
#
# Disc length: 3251 seconds
#
# Revision: 1
# Processed by: cddbd v1.5.1PL0 Copyright (c) Steve Scherf et al.
# Submitted via: audiograbber 1.83.01
#
DISCID=af0cb10d
DTITLE=Malandro - Malandro
DYEAR=2005
DGENRE=Blues
TTITLE0=Back in the Day
TTITLE1=Deusa
TTITLE2=Gimmie
TTITLE3=The Key
TTITLE4=Special Kind of Woman
TTITLE5=Cosmic Surfer
TTITLE6=Woke Up to Another Day Thinking of You
TTITLE7=Louisiana
TTITLE8=Hidden Pleasures
TTITLE9=Forget Everyone
TTITLE10=Go Away
TTITLE11=Thrown to Hell
TTITLE12=Wine Stains
EXTD=
EXTT0=
EXTT1=
EXTT2=
EXTT3=
EXTT4=
EXTT5=
EXTT6=
EXTT7=
EXTT8=
EXTT9=
EXTT10=
EXTT11=
EXTT12=
PLAYORDER=
